<svg xmlns="http://www.w3.org/2000/svg" width="1280" height="640" viewBox="0 0 1280 640" role="img" aria-labelledby="title desc">
  <title id="title">Netspeedy public GitHub profile social preview</title>
  <desc id="desc">A dark branded social preview card for Netspeedy infrastructure, automation and platform engineering.</desc>
  <defs>
    <linearGradient id="bg" x1="0" y1="0" x2="1" y2="1">
      <stop offset="0" stop-color="#020617" />
      <stop offset="0.52" stop-color="#0f172a" />
      <stop offset="1" stop-color="#111827" />
    </linearGradient>
    <linearGradient id="accent" x1="0" y1="0" x2="1" y2="0">
      <stop offset="0" stop-color="#38bdf8" />
      <stop offset="0.52" stop-color="#8b5cf6" />
      <stop offset="1" stop-color="#f97316" />
    </linearGradient>
    <radialGradient id="glowA" cx="18%" cy="18%" r="58%">
      <stop offset="0" stop-color="#38bdf8" stop-opacity="0.34" />
      <stop offset="0.5" stop-color="#38bdf8" stop-opacity="0.12" />
      <stop offset="1" stop-color="#38bdf8" stop-opacity="0" />
    </radialGradient>
    <radialGradient id="glowB" cx="82%" cy="80%" r="58%">
      <stop offset="0" stop-color="#f97316" stop-opacity="0.24" />
      <stop offset="0.52" stop-color="#f97316" stop-opacity="0.09" />
      <stop offset="1" stop-color="#f97316" stop-opacity="0" />
    </radialGradient>
    <pattern id="grid" width="56" height="56" patternUnits="userSpaceOnUse">
      <path d="M56 0H0V56" fill="none" stroke="#94a3b8" stroke-opacity="0.08" stroke-width="1" />
    </pattern>
    <filter id="shadow" x="-20%" y="-20%" width="140%" height="140%">
      <feDropShadow dx="0" dy="28" stdDeviation="28" flood-color="#020617" flood-opacity="0.48" />
    </filter>
    <style>
      .mono { font-family: ui-monospace, SFMono-Regular, Menlo, Monaco, Consolas, "Liberation Mono", monospace; }
      .sans { font-family: Inter, ui-sans-serif, system-ui, -apple-system, BlinkMacSystemFont, "Segoe UI", sans-serif; }
    </style>
  </defs>

  <rect width="1280" height="640" fill="url(#bg)" />
  <rect width="1280" height="640" fill="url(#glowA)" />
  <rect width="1280" height="640" fill="url(#glowB)" />
  <rect width="1280" height="640" fill="url(#grid)" />

  <g filter="url(#shadow)">
    <rect x="64" y="58" width="1152" height="524" rx="42" fill="#0f172a" fill-opacity="0.82" stroke="#334155" stroke-width="2" />
    <rect x="92" y="86" width="1096" height="68" rx="20" fill="#111827" fill-opacity="0.78" stroke="#475569" stroke-width="1" />
    <circle cx="126" cy="120" r="8" fill="#ef4444" />
    <circle cx="154" cy="120" r="8" fill="#f59e0b" />
    <circle cx="182" cy="120" r="8" fill="#22c55e" />
    <text x="224" y="128" class="mono" fill="#94a3b8" font-size="22">github.com/netspeedy</text>

    <text x="104" y="240" class="mono" fill="#38bdf8" font-size="24" font-weight="700" letter-spacing="7">PUBLIC PROFILE</text>
    <text x="104" y="340" class="sans" fill="#f8fafc" font-size="88" font-weight="850" letter-spacing="-2">Netspeedy</text>
    <text x="108" y="404" class="sans" fill="#e2e8f0" font-size="40" font-weight="650">Infrastructure, automation</text>
    <text x="108" y="456" class="sans" fill="#e2e8f0" font-size="40" font-weight="650">and platform engineering</text>
    <text x="108" y="522" class="sans" fill="#cbd5e1" font-size="28" textLength="697" lengthAdjust="spacingAndGlyphs">Linux / Ansible / Kubernetes / GitOps / DNS / networking</text>

    <rect x="104" y="548" width="709" height="4" rx="2" fill="url(#accent)" />

    <g transform="translate(840 214)">
      <rect x="0" y="0" width="260" height="216" rx="28" fill="#020617" fill-opacity="0.58" stroke="#334155" />
      <path d="M46 82H106C130 82 130 46 154 46H214" fill="none" stroke="#38bdf8" stroke-width="4" stroke-linecap="round" />
      <path d="M46 134H106C130 134 130 170 154 170H214" fill="none" stroke="#f97316" stroke-width="4" stroke-linecap="round" />
      <path d="M46 108H214" fill="none" stroke="#8b5cf6" stroke-width="4" stroke-linecap="round" />
      <circle cx="46" cy="82" r="9" fill="#38bdf8" />
      <circle cx="46" cy="108" r="9" fill="#8b5cf6" />
      <circle cx="46" cy="134" r="9" fill="#f97316" />
      <circle cx="214" cy="46" r="9" fill="#38bdf8" />
      <circle cx="214" cy="108" r="9" fill="#8b5cf6" />
      <circle cx="214" cy="170" r="9" fill="#f97316" />
    </g>
  </g>
</svg>
